STARTFONT 2.1
COMMENT $XConsortium: luRS24.bdf,v 1.7 94/04/02 16:00:17 gildea Exp $
COMMENT  (c) Copyright Bigelow & Holmes 1986, 1985. Lucida is a registered
COMMENT  trademark of Bigelow & Holmes. See LEGAL NOTICE file for terms 
COMMENT  of the license. 
FONT -RFX-Serene-Medium-R-Normal-Sans-24-240-75-75-P-136-windows-1251
SIZE 24 72 72
FONTBOUNDINGBOX 39 27 -15 -5
STARTPROPERTIES 24
FONTNAME_REGISTRY ""
FOUNDRY "RFX"
FAMILY_NAME "Serene"
WEIGHT_NAME "Medium"
SLANT "R"
SETWIDTH_NAME "Normal"
ADD_STYLE_NAME "Sans"
PIXEL_SIZE 24
POINT_SIZE 240
RESOLUTION_X 75
RESOLUTION_Y 75
SPACING "P"
AVERAGE_WIDTH 136
CHARSET_REGISTRY "windows"
CHARSET_ENCODING "1251"
FONT_ASCENT 22
FONT_DESCENT 5
DEFAULT_CHAR 32
COPYRIGHT "Copyright Bigelow & Holmes 1986, 1985."
FACE_NAME "Lucida Sans"
COPYRIGHT2 "Cyrillic and Euro glyphs copyright 2000 Dmitry Yu. Bolkhovityanov, bolkhov@inp.nsk.su"
SOURCEDATE "Sat Jul 29 13:26:06 2000"
PKGVERSION "1.1"
ASSEMBLER "cvtbdf.pl (Linux)"
ENDPROPERTIES
CHARS 244
STARTCHAR space
ENCODING 32
SWIDTH 316 0
DWIDTH 8 0
BBX 0 0 0 0
BITMAP
ENDCHAR
STARTCHAR exclam
ENCODING 33
SWIDTH 205 0
DWIDTH 8 0
BBX 2 17 3 0
BITMAP
C0
C0
C0
C0
C0
C0
C0
C0
C0
C0
C0
C0
00
00
C0
C0
C0
ENDCHAR
STARTCHAR quotedbl
ENCODING 34
SWIDTH 373 0
DWIDTH 9 0
BBX 6 6 1 11
BITMAP
CC
CC
CC
CC
CC
CC
ENDCHAR
STARTCHAR numbersign
ENCODING 35
SWIDTH 633 0
DWIDTH 15 0
BBX 15 17 0 0
BITMAP
0318
0318
0330
0630
0630
7FFE
7FFE
0660
0C60
0C60
0CC0
FFFC
FFFC
18C0
1980
3980
3180
ENDCHAR
STARTCHAR dollar
ENCODING 36
SWIDTH 633 0
DWIDTH 15 0
BBX 10 21 2 -2
BITMAP
0C00
0C00
3F80
7FC0
EC00
CC00
CC00
EC00
7C00
3C00
1E00
0F80
0D80
0CC0
0CC0
0CC0
8DC0
FF80
7F00
0C00
0C00
ENDCHAR
STARTCHAR percent
ENCODING 37
SWIDTH 669 0
DWIDTH 16 0
BBX 17 17 0 0
BITMAP
3C0380
7E0700
E70E00
C30C00
C31800
E73000
7E7000
3CE000
01DE00
03BF00
077380
066180
0C6180
1C6180
387380
703F00
E01E00
ENDCHAR
STARTCHAR ampersand
ENCODING 38
SWIDTH 697 0
DWIDTH 17 0
BBX 14 17 1 0
BITMAP
0780
0FC0
1CC0
1CC0
1CC0
1D80
0F80
3E00
761C
631C
E39C
E198
E1F8
F0F0
78E0
3FF0
1F1C
ENDCHAR
STARTCHAR quotesingle
ENCODING 39
SWIDTH 229 0
DWIDTH 5 0
BBX 4 5 1 12
BITMAP
F0
F0
F0
60
60
ENDCHAR
STARTCHAR parenleft
ENCODING 40
SWIDTH 325 0
DWIDTH 8 0
BBX 6 21 1 -4
BITMAP
04
0C
18
38
30
70
60
E0
E0
E0
E0
E0
E0
E0
60
70
30
38
18
0C
04
ENDCHAR
STARTCHAR parenright
ENCODING 41
SWIDTH 325 0
DWIDTH 8 0
BBX 6 21 1 -4
BITMAP
80
C0
60
70
30
38
18
1C
1C
1C
1C
1C
1C
1C
18
38
30
70
60
C0
80
ENDCHAR
STARTCHAR asterisk
ENCODING 42
SWIDTH 482 0
DWIDTH 12 0
BBX 9 9 1 8
BITMAP
0800
0800
4880
EB80
3600
1400
3600
6200
2300
ENDCHAR
STARTCHAR plus
ENCODING 43
SWIDTH 633 0
DWIDTH 15 0
BBX 14 14 1 0
BITMAP
0300
0300
0300
0300
0300
0300
FFFC
FFFC
0300
0300
0300
0300
0300
0300
ENDCHAR
STARTCHAR comma
ENCODING 44
SWIDTH 316 0
DWIDTH 8 0
BBX 3 9 2 -5
BITMAP
E0
E0
E0
E0
60
60
60
C0
80
ENDCHAR
STARTCHAR minus
ENCODING 45
SWIDTH 633 0
DWIDTH 15 0
BBX 14 2 1 7
BITMAP
FFFC
FFFC
ENDCHAR
STARTCHAR period
ENCODING 46
SWIDTH 316 0
DWIDTH 8 0
BBX 3 3 2 0
BITMAP
E0
E0
E0
ENDCHAR
STARTCHAR slash
ENCODING 47
SWIDTH 494 0
DWIDTH 12 0
BBX 12 21 0 -4
BITMAP
0030
0060
0060
00C0
00C0
0180
0180
0380
0300
0700
0600
0E00
0C00
1C00
1800
1800
3000
3000
6000
6000
C000
ENDCHAR
STARTCHAR zero
ENCODING 48
SWIDTH 633 0
DWIDTH 15 0
BBX 12 17 2 0
BITMAP
0F00
3FC0
79E0
70E0
70E0
E070
E070
E070
E070
E070
E070
E070
70E0
70E0
79E0
3FC0
0F00
ENDCHAR
STARTCHAR one
ENCODING 49
SWIDTH 633 0
DWIDTH 15 0
BBX 6 17 3 0
BITMAP
FC
FC
1C
1C
1C
1C
1C
1C
1C
1C
1C
1C
1C
1C
1C
1C
1C
ENDCHAR
STARTCHAR two
ENCODING 50
SWIDTH 633 0
DWIDTH 15 0
BBX 11 17 2 0
BITMAP
3F00
FFC0
C1C0
00E0
00E0
00E0
00E0
01C0
0380
0700
0E00
1C00
3000
7000
E000
FFE0
FFE0
ENDCHAR
STARTCHAR three
ENCODING 51
SWIDTH 633 0
DWIDTH 15 0
BBX 11 17 2 0
BITMAP
7F00
FFC0
C1E0
00E0
00E0
00C0
0380
3E00
3F00
03C0
00E0
00E0
00E0
00E0
83C0
FF80
FF00
ENDCHAR
STARTCHAR four
ENCODING 52
SWIDTH 633 0
DWIDTH 15 0
BBX 12 17 1 0
BITMAP
01C0
03C0
03C0
07C0
0EC0
1CC0
18C0
30C0
70C0
E0C0
FFF0
FFF0
00C0
00C0
00C0
00C0
00C0
ENDCHAR
STARTCHAR five
ENCODING 53
SWIDTH 633 0
DWIDTH 15 0
BBX 9 17 3 0
BITMAP
FF80
FF80
C000
C000
C000
C000
F800
FE00
0F00
0380
0380
0380
0380
0380
8700
FE00
FC00
ENDCHAR
STARTCHAR six
ENCODING 54
SWIDTH 633 0
DWIDTH 15 0
BBX 12 17 2 0
BITMAP
0FC0
1FE0
3820
7000
7000
E000
E780
EFE0
F8E0
E070
E070
E070
6070
7070
38E0
3FC0
0F80
ENDCHAR
STARTCHAR seven
ENCODING 55
SWIDTH 633 0
DWIDTH 15 0
BBX 11 17 3 0
BITMAP
FFE0
FFE0
00E0
00C0
01C0
0380
0300
0700
0600
0E00
1C00
1C00
3800
3800
3000
7000
7000
ENDCHAR
STARTCHAR eight
ENCODING 56
SWIDTH 633 0
DWIDTH 15 0
BBX 12 17 2 0
BITMAP
0F80
1FC0
38E0
3060
3060
3840
1CC0
0F00
1FC0
73E0
61F0
E070
E070
E070
F0E0
7FE0
1F80
ENDCHAR
STARTCHAR nine
ENCODING 57
SWIDTH 633 0
DWIDTH 15 0
BBX 12 17 2 0
BITMAP
1F00
3FC0
71E0
E0E0
E070
E070
E070
E070
70F0
7F70
1E70
0070
00E0
00E0
41C0
7F80
7E00
ENDCHAR
STARTCHAR colon
ENCODING 58
SWIDTH 316 0
DWIDTH 8 0
BBX 3 13 2 0
BITMAP
E0
E0
E0
00
00
00
00
00
00
00
E0
E0
E0
ENDCHAR
STARTCHAR semicolon
ENCODING 59
SWIDTH 316 0
DWIDTH 8 0
BBX 3 18 2 -5
BITMAP
E0
E0
E0
00
00
00
00
00
00
00
00
E0
E0
60
60
60
C0
80
ENDCHAR
STARTCHAR less
ENCODING 60
SWIDTH 633 0
DWIDTH 15 0
BBX 14 14 1 0
BITMAP
0004
001C
0078
01E0
0780
1E00
F800
7800
1E00
0780
01E0
0078
001C
0004
ENDCHAR
STARTCHAR equal
ENCODING 61
SWIDTH 633 0
DWIDTH 15 0
BBX 14 7 1 4
BITMAP
FFFC
FFFC
0000
0000
0000
FFFC
FFFC
ENDCHAR
STARTCHAR greater
ENCODING 62
SWIDTH 633 0
DWIDTH 15 0
BBX 14 14 1 0
BITMAP
8000
E000
7800
1E00
0780
01E0
0078
007C
01E0
0780
1E00
7800
E000
8000
ENDCHAR
STARTCHAR question
ENCODING 63
SWIDTH 422 0
DWIDTH 10 0
BBX 10 17 0 0
BITMAP
7E00
FF80
83C0
01C0
01C0
01C0
0380
0700
0E00
0C00
1C00
1C00
1C00
0000
1C00
1C00
1C00
ENDCHAR
STARTCHAR at
ENCODING 64
SWIDTH 858 0
DWIDTH 21 0
BBX 19 17 3 0
BITMAP
00FC00
03FF00
0F0380
1C00C0
387CE0
71F860
630860
C31860
C63060
C670C0
C659C0
C79F80
E30E00
700000
3C0800
1FF800
07E000
ENDCHAR
STARTCHAR A
ENCODING 65
SWIDTH 690 0
DWIDTH 17 0
BBX 16 17 0 0
BITMAP
01C0
03C0
03E0
07E0
06E0
06F0
0C70
0C78
1C38
1838
1FFC
3FFC
301E
700E
600E
600F
C007
ENDCHAR
STARTCHAR B
ENCODING 66
SWIDTH 575 0
DWIDTH 14 0
BBX 11 17 2 0
BITMAP
FF00
FF80
E3C0
E1C0
E1C0
E1C0
E380
FF00
FE00
E380
E1C0
E0E0
E0E0
E0E0
E1E0
FFC0
FF00
ENDCHAR
STARTCHAR C
ENCODING 67
SWIDTH 692 0
DWIDTH 17 0
BBX 14 17 1 0
BITMAP
07F8
1FFC
3C0C
7800
7000
F000
E000
E000
E000
E000
E000
E000
7000
7804
3C1C
1FFC
07F0
ENDCHAR
STARTCHAR D
ENCODING 68
SWIDTH 749 0
DWIDTH 18 0
BBX 15 17 2 0
BITMAP
FFC0
FFF0
E078
E03C
E01C
E00E
E00E
E00E
E00E
E00E
E00E
E00E
E01C
E01C
E078
FFF0
FF80
ENDCHAR
STARTCHAR E
ENCODING 69
SWIDTH 542 0
DWIDTH 13 0
BBX 11 17 2 0
BITMAP
FFC0
FFC0
E000
E000
E000
E000
E000
FF80
FF80
E000
E000
E000
E000
E000
E000
FFE0
FFE0
ENDCHAR
STARTCHAR F
ENCODING 70
SWIDTH 536 0
DWIDTH 13 0
BBX 10 17 2 0
BITMAP
FFC0
FFC0
E000
E000
E000
E000
E000
E000
FF80
FF80
E000
E000
E000
E000
E000
E000
E000
ENDCHAR
STARTCHAR G
ENCODING 71
SWIDTH 723 0
DWIDTH 17 0
BBX 14 17 1 0
BITMAP
07F8
1FFC
3C0C
7800
7000
F000
E000
E000
E000
E01C
E01C
E01C
701C
781C
3C1C
1FFC
07F0
ENDCHAR
STARTCHAR H
ENCODING 72
SWIDTH 735 0
DWIDTH 18 0
BBX 13 17 2 0
BITMAP
E038
E038
E038
E038
E038
E038
E038
FFF8
FFF8
E038
E038
E038
E038
E038
E038
E038
E038
ENDCHAR
STARTCHAR I
ENCODING 73
SWIDTH 288 0
DWIDTH 7 0
BBX 3 17 2 0
BITMAP
E0
E0
E0
E0
E0
E0
E0
E0
E0
E0
E0
E0
E0
E0
E0
E0
E0
ENDCHAR
STARTCHAR J
ENCODING 74
SWIDTH 311 0
DWIDTH 7 0
BBX 8 21 -1 -4
BITMAP
07
07
07
07
07
07
07
07
07
07
07
07
07
07
07
07
07
07
0E
FE
F8
ENDCHAR
STARTCHAR K
ENCODING 75
SWIDTH 653 0
DWIDTH 16 0
BBX 14 17 2 0
BITMAP
E070
E0E0
E0C0
E180
E300
E700
EE00
EC00
FC00
FE00
EF00
E780
E3C0
E1E0
E0E0
E0F0
E07C
ENDCHAR
STARTCHAR L
ENCODING 76
SWIDTH 533 0
DWIDTH 13 0
BBX 11 17 2 0
BITMAP
E000
E000
E000
E000
E000
E000
E000
E000
E000
E000
E000
E000
E000
E000
E000
FFE0
FFE0
ENDCHAR
STARTCHAR M
ENCODING 77
SWIDTH 861 0
DWIDTH 21 0
BBX 16 17 2 0
BITMAP
F00F
F00F
F80F
F81F
F81F
DC3F
DC37
DC37
CE77
CE67
CE67
C7C7
C7C7
C7C7
C387
C387
C007
ENDCHAR
STARTCHAR N
ENCODING 78
SWIDTH 741 0
DWIDTH 18 0
BBX 13 17 2 0
BITMAP
E018
F018
F018
F818
FC18
DC18
DE18
CF18
C718
C798
C3D8
C1D8
C1F8
C0F8
C078
C078
C038
ENDCHAR
STARTCHAR O
ENCODING 79
SWIDTH 777 0
DWIDTH 19 0
BBX 16 17 1 0
BITMAP
07E0
1FF8
3C3C
781E
700E
E007
E007
E007
E007
E007
E007
E007
700E
781E
3C3C
1FF8
07E0
ENDCHAR
STARTCHAR P
ENCODING 80
SWIDTH 553 0
DWIDTH 13 0
BBX 11 17 2 0
BITMAP
FF80
FFC0
E1E0
E0E0
E0E0
E0E0
E1E0
E3C0
FF80
FF00
E000
E000
E000
E000
E000
E000
E000
ENDCHAR
STARTCHAR Q
ENCODING 81
SWIDTH 777 0
DWIDTH 19 0
BBX 18 21 1 -4
BITMAP
07E000
1FF800
3C3C00
781E00
700E00
E00700
E00700
E00700
E00700
E00700
E00700
E00700
700E00
781E00
3C3C00
1FF800
07E000
003C00
000FC0
000780
000180
ENDCHAR
STARTCHAR R
ENCODING 82
SWIDTH 633 0
DWIDTH 15 0
BBX 13 17 3 0
BITMAP
FF00
FF80
E3C0
E1C0
E1C0
E1C0
E380
E780
FE00
FE00
E700
E780
E380
E3C0
E1E0
E0F0
E0F8
ENDCHAR
STARTCHAR S
ENCODING 83
SWIDTH 539 0
DWIDTH 13 0
BBX 10 17 1 0
BITMAP
3F00
7F80
F080
E000
E000
F000
7800
7E00
3F00
0F80
03C0
01C0
01C0
01C0
8380
FF80
7E00
ENDCHAR
STARTCHAR T
ENCODING 84
SWIDTH 633 0
DWIDTH 15 0
BBX 15 17 0 0
BITMAP
FFFE
FFFE
0380
0380
0380
0380
0380
0380
0380
0380
0380
0380
0380
0380
0380
0380
0380
ENDCHAR
STARTCHAR U
ENCODING 85
SWIDTH 693 0
DWIDTH 17 0
BBX 12 17 2 0
BITMAP
E030
E030
E030
E030
E030
E030
E030
E030
E030
E030
E030
E030
E030
F070
7060
7FE0
1F80
ENDCHAR
STARTCHAR V
ENCODING 86
SWIDTH 654 0
DWIDTH 16 0
BBX 15 17 1 0
BITMAP
E006
E00C
700C
700C
7018
3818
3838
3C30
1C30
1C60
0E60
0E60
0FC0
07C0
07C0
0780
0380
ENDCHAR
STARTCHAR W
ENCODING 87
SWIDTH 855 0
DWIDTH 21 0
BBX 20 17 0 0
BITMAP
E07030
E07030
E0F060
70F060
70F860
70F8E0
71B8C0
39B8C0
399CC0
399D80
3B1D80
1F1D80
1F1F80
1F0F00
1F0F00
0E0F00
0E0E00
ENDCHAR
STARTCHAR X
ENCODING 88
SWIDTH 626 0
DWIDTH 15 0
BBX 14 17 0 0
BITMAP
F01C
7038
3830
3C70
1CE0
1EC0
0FC0
0780
0780
07C0
0FC0
0DE0
18F0
3870
3078
6038
E03C
ENDCHAR
STARTCHAR Y
ENCODING 89
SWIDTH 623 0
DWIDTH 15 0
BBX 15 17 0 0
BITMAP
E00E
700C
7818
3838
3C30
1E70
0E60
0FC0
07C0
0780
0380
0380
0380
0380
0380
0380
0380
ENDCHAR
STARTCHAR Z
ENCODING 90
SWIDTH 605 0
DWIDTH 14 0
BBX 12 17 1 0
BITMAP
7FF0
7FF0
00F0
00E0
01E0
03C0
0380
0700
0F00
1E00
1C00
3C00
7800
7000
F000
FFF0
FFF0
ENDCHAR
STARTCHAR bracketleft
ENCODING 91
SWIDTH 325 0
DWIDTH 8 0
BBX 5 21 2 -4
BITMAP
F8
F8
C0
C0
C0
C0
C0
C0
C0
C0
C0
C0
C0
C0
C0
C0
C0
C0
C0
F8
F8
ENDCHAR
STARTCHAR backslash
ENCODING 92
SWIDTH 494 0
DWIDTH 12 0
BBX 12 21 0 -4
BITMAP
C000
6000
6000
3000
3000
1800
1800
1C00
0C00
0E00
0600
0700
0300
0380
0180
0180
00C0
00C0
0060
0060
0030
ENDCHAR
STARTCHAR bracketright
ENCODING 93
SWIDTH 325 0
DWIDTH 8 0
BBX 5 21 1 -4
BITMAP
F8
F8
18
18
18
18
18
18
18
18
18
18
18
18
18
18
18
18
18
F8
F8
ENDCHAR
STARTCHAR asciicircum
ENCODING 94
SWIDTH 633 0
DWIDTH 15 0
BBX 14 14 1 3
BITMAP
0100
0300
0300
0780
0780
0CC0
0CC0
1860
1860
3030
3030
6018
6018
C00C
ENDCHAR
STARTCHAR underscore
ENCODING 95
SWIDTH 500 0
DWIDTH 12 0
BBX 10 2 1 -3
BITMAP
FFC0
FFC0
ENDCHAR
STARTCHAR grave
ENCODING 96
SWIDTH 614 0
DWIDTH 15 0
BBX 5 3 4 14
BITMAP
E0
30
18
ENDCHAR
STARTCHAR a
ENCODING 97
SWIDTH 552 0
DWIDTH 13 0
BBX 12 13 1 0
BITMAP
1F80
7FC0
41C0
01C0
01C0
1FC0
7FC0
F1C0
E1C0
E1C0
E3C0
7EF0
3C70
ENDCHAR
STARTCHAR b
ENCODING 98
SWIDTH 630 0
DWIDTH 15 0
BBX 12 17 2 0
BITMAP
E000
E000
E000
E000
E780
EFE0
F8E0
E0F0
E070
E070
E070
E070
E070
E0E0
F1E0
FFC0
CF80
ENDCHAR
STARTCHAR c
ENCODING 99
SWIDTH 518 0
DWIDTH 12 0
BBX 10 13 1 0
BITMAP
0FC0
3FC0
7840
7000
E000
E000
E000
E000
E000
7000
7840
3FC0
0F80
ENDCHAR
STARTCHAR d
ENCODING 100
SWIDTH 630 0
DWIDTH 15 0
BBX 12 17 1 0
BITMAP
0070
0070
0070
0070
1E70
3FF0
78F0
7070
E070
E070
E070
E070
E070
F070
71F0
7F70
1E70
ENDCHAR
STARTCHAR e
ENCODING 101
SWIDTH 557 0
DWIDTH 13 0
BBX 11 13 1 0
BITMAP
1F00
3F80
71C0
60E0
E0E0
FFE0
FFE0
E000
E000
7000
7820
3FE0
0FC0
ENDCHAR
STARTCHAR f
ENCODING 102
SWIDTH 367 0
DWIDTH 9 0
BBX 9 19 1 0
BITMAP
0F80
1F80
3800
3800
3800
3800
FF00
FF00
3800
3800
3800
3800
3800
3800
3800
3800
3800
3800
3800
ENDCHAR
STARTCHAR g
ENCODING 103
SWIDTH 623 0
DWIDTH 15 0
BBX 12 18 1 -5
BITMAP
1E70
3FF0
78F0
7070
E070
E070
E070
E070
E070
E070
71F0
7F70
1E70
0070
0060
40E0
7FC0
3F80
ENDCHAR
STARTCHAR h
ENCODING 104
SWIDTH 620 0
DWIDTH 15 0
BBX 10 17 3 0
BITMAP
E000
E000
E000
E000
E700
EF80
F1C0
F1C0
E1C0
E1C0
E1C0
E1C0
E1C0
E1C0
E1C0
E1C0
E1C0
ENDCHAR
STARTCHAR i
ENCODING 105
SWIDTH 289 0
DWIDTH 7 0
BBX 3 17 2 0
BITMAP
E0
E0
E0
00
E0
E0
E0
E0
E0
E0
E0
E0
E0
E0
E0
E0
E0
ENDCHAR
STARTCHAR j
ENCODING 106
SWIDTH 304 0
DWIDTH 7 0
BBX 7 22 -1 -5
BITMAP
0E
0E
0E
00
0E
0E
0E
0E
0E
0E
0E
0E
0E
0E
0E
0E
0E
0E
0E
8E
FC
F8
ENDCHAR
STARTCHAR k
ENCODING 107
SWIDTH 585 0
DWIDTH 14 0
BBX 12 17 2 0
BITMAP
E000
E000
E000
E000
E0E0
E1C0
E380
E700
E600
EC00
FE00
EF00
EF80
E780
E3C0
E1E0
E0F0
ENDCHAR
STARTCHAR l
ENCODING 108
SWIDTH 289 0
DWIDTH 7 0
BBX 3 17 2 0
BITMAP
E0
E0
E0
E0
E0
E0
E0
E0
E0
E0
E0
E0
E0
E0
E0
E0
E0
ENDCHAR
STARTCHAR m
ENCODING 109
SWIDTH 934 0
DWIDTH 22 0
BBX 17 13 3 0
BITMAP
E78E00
EFDF00
F1E380
F1E380
E1C380
E1C380
E1C380
E1C380
E1C380
E1C380
E1C380
E1C380
E1C380
ENDCHAR
STARTCHAR n
ENCODING 110
SWIDTH 620 0
DWIDTH 15 0
BBX 10 13 3 0
BITMAP
E700
EF80
F1C0
F1C0
E1C0
E1C0
E1C0
E1C0
E1C0
E1C0
E1C0
E1C0
E1C0
ENDCHAR
STARTCHAR o
ENCODING 111
SWIDTH 614 0
DWIDTH 15 0
BBX 12 13 1 0
BITMAP
1F80
3FC0
79E0
70E0
E070
E070
E070
E070
E070
70E0
79E0
3FC0
1F80
ENDCHAR
STARTCHAR p
ENCODING 112
SWIDTH 630 0
DWIDTH 15 0
BBX 12 18 2 -5
BITMAP
E780
EFE0
F8E0
E0F0
E070
E070
E070
E070
E070
E0E0
F1E0
FFC0
E780
E000
E000
E000
E000
E000
ENDCHAR
STARTCHAR q
ENCODING 113
SWIDTH 630 0
DWIDTH 15 0
BBX 12 18 1 -5
BITMAP
1E70
3FF0
78F0
7070
E070
E070
E070
E070
E070
F070
71F0
7F70
1E70
0070
0070
0070
0070
0070
ENDCHAR
STARTCHAR r
ENCODING 114
SWIDTH 409 0
DWIDTH 10 0
BBX 8 13 2 0
BITMAP
E7
EF
F8
F0
E0
E0
E0
E0
E0
E0
E0
E0
E0
ENDCHAR
STARTCHAR s
ENCODING 115
SWIDTH 510 0
DWIDTH 12 0
BBX 9 13 2 0
BITMAP
3F00
7F00
E100
E000
F000
FE00
7F00
1F80
0380
0380
8780
FF00
7E00
ENDCHAR
STARTCHAR t
ENCODING 116
SWIDTH 374 0
DWIDTH 9 0
BBX 8 15 0 0
BITMAP
38
38
FF
FF
38
38
38
38
38
38
38
38
38
1F
0F
ENDCHAR
STARTCHAR u
ENCODING 117
SWIDTH 620 0
DWIDTH 15 0
BBX 10 13 2 0
BITMAP
E1C0
E1C0
E1C0
E1C0
E1C0
E1C0
E1C0
E1C0
E1C0
E3C0
E3C0
7DC0
39C0
ENDCHAR
STARTCHAR v
ENCODING 118
SWIDTH 572 0
DWIDTH 12 0
BBX 12 13 0 0
BITMAP
E030
E060
F060
70E0
70C0
38C0
3980
3980
1D80
1F00
1F00
0F00
0E00
ENDCHAR
STARTCHAR w
ENCODING 119
SWIDTH 840 0
DWIDTH 18 0
BBX 18 13 0 0
BITMAP
C0C0C0
C1E1C0
61E180
61E180
61E380
333300
333300
333300
3E3600
1E1E00
1E1E00
1E1C00
1C1C00
ENDCHAR
STARTCHAR x
ENCODING 120
SWIDTH 613 0
DWIDTH 15 0
BBX 13 13 1 0
BITMAP
E038
7070
38E0
1CC0
0DC0
0780
0700
0F80
1D80
18C0
30E0
7070
E038
ENDCHAR
STARTCHAR y
ENCODING 121
SWIDTH 568 0
DWIDTH 13 0
BBX 12 18 0 -5
BITMAP
E030
E060
7060
7060
70C0
38C0
39C0
3D80
1D80
1F00
1F00
0F00
0E00
0600
0E00
0C00
1C00
1800
ENDCHAR
STARTCHAR z
ENCODING 122
SWIDTH 573 0
DWIDTH 14 0
BBX 11 13 1 0
BITMAP
FFE0
FFE0
00C0
0180
0300
0700
0E00
1C00
3800
3000
6000
FFE0
FFE0
ENDCHAR
STARTCHAR braceleft
ENCODING 123
SWIDTH 325 0
DWIDTH 8 0
BBX 6 21 0 -4
BITMAP
0C
1C
30
30
30
30
30
30
30
20
C0
E0
30
30
30
30
30
30
30
1C
0C
ENDCHAR
STARTCHAR bar
ENCODING 124
SWIDTH 265 0
DWIDTH 6 0
BBX 2 21 2 -4
BITMAP
C0
C0
C0
C0
C0
C0
C0
C0
C0
C0
C0
C0
C0
C0
C0
C0
C0
C0
C0
C0
C0
ENDCHAR
STARTCHAR braceright
ENCODING 125
SWIDTH 325 0
DWIDTH 8 0
BBX 6 21 2 -4
BITMAP
C0
E0
30
30
30
30
30
30
30
1C
0C
10
30
30
30
30
30
30
30
E0
C0
ENDCHAR
STARTCHAR asciitilde
ENCODING 126
SWIDTH 633 0
DWIDTH 15 0
BBX 14 6 1 4
BITMAP
380C
7E0C
670C
C398
C1F8
C070
ENDCHAR
STARTCHAR afii10051
ENCODING 128
SWIDTH 916 0
DWIDTH 22 0
BBX 19 17 0 0
BITMAP
FFFE00
FFFE00
038000
038000
038000
038000
03BF00
03FFC0
03C1C0
0381E0
0380E0
0380E0
0380E0
0380E0
0381C0
038FC0
038F00
ENDCHAR
STARTCHAR afii10052
ENCODING 129
SWIDTH 500 0
DWIDTH 12 0
BBX 10 21 2 0
BITMAP
0700
0C00
1800
0000
FFC0
FFC0
E000
E000
E000
E000
E000
E000
E000
E000
E000
E000
E000
E000
E000
E000
E000
ENDCHAR
STARTCHAR quotesinglbase
ENCODING 130
SWIDTH 229 0
DWIDTH 5 0
BBX 3 8 1 -4
BITMAP
E0
E0
E0
E0
60
60
40
C0
ENDCHAR
STARTCHAR afii10100
ENCODING 131
SWIDTH 458 0
DWIDTH 11 0
BBX 9 17 2 0
BITMAP
0700
0C00
1800
0000
FF80
FF80
E000
E000
E000
E000
E000
E000
E000
E000
E000
E000
E000
ENDCHAR
STARTCHAR quotedblbase
ENCODING 132
SWIDTH 373 0
DWIDTH 9 0
BBX 7 8 1 -5
BITMAP
EE
EE
EE
66
66
66
CC
88
ENDCHAR
STARTCHAR ellipsis
ENCODING 133
SWIDTH 1000 0
DWIDTH 24 0
BBX 18 3 3 0
BITMAP
E0E1C0
E0E1C0
E0E1C0
ENDCHAR
STARTCHAR dagger
ENCODING 134
SWIDTH 633 0
DWIDTH 15 0
BBX 10 21 3 -4
BITMAP
0C00
0C00
0C00
0C00
0C00
0C00
FFC0
FFC0
0C00
0C00
0C00
0C00
0C00
0C00
0C00
0C00
0C00
0C00
0C00
0C00
0C00
ENDCHAR
STARTCHAR daggerdbl
ENCODING 135
SWIDTH 633 0
DWIDTH 15 0
BBX 10 21 3 -4
BITMAP
0C00
0C00
0C00
0C00
0C00
0C00
FFC0
FFC0
0C00
0C00
0C00
0C00
0C00
FFC0
FFC0
0C00
0C00
0C00
0C00
0C00
0C00
ENDCHAR
STARTCHAR Euro
ENCODING 136
SWIDTH 750 0
DWIDTH 18 0
BBX 15 17 1 0
BITMAP
03FC
0FFE
1E06
3C00
3800
7800
7000
FFE0
7000
FFC0
7000
7000
3800
3C02
1E0E
0FFE
03F8
ENDCHAR
STARTCHAR perthousand
ENCODING 137
SWIDTH 1012 0
DWIDTH 24 0
BBX 23 17 1 0
BITMAP
380E00
7C0C00
EE1800
C63800
C67000
EE6000
7CC000
39C000
03B838
037C7C
06EEEE
0CC6C6
1CC6C6
38C6C6
30EEEE
607C7C
E03838
ENDCHAR
STARTCHAR afii10058
ENCODING 138
SWIDTH 1000 0
DWIDTH 24 0
BBX 22 17 1 0
BITMAP
1FFC00
1FFC00
1C1C00
1C1C00
1C1C00
1C1C00
1C1C00
1C1FC0
1C1FF0
1C1C78
1C1C3C
1C1C1C
1C1C1C
1C1C1C
381C3C
F81FF8
E01FF0
ENDCHAR
STARTCHAR guilsinglleft
ENCODING 139
SWIDTH 331 0
DWIDTH 8 0
BBX 6 11 1 1
BITMAP
0C
1C
38
30
60
E0
60
30
38
1C
08
ENDCHAR
STARTCHAR afii10059
ENCODING 140
SWIDTH 958 0
DWIDTH 23 0
BBX 20 17 2 0
BITMAP
E07000
E07000
E07000
E07000
E07000
E07000
E07000
FFFF00
FFFFC0
E071E0
E070F0
E07070
E07070
E07070
E070F0
E07FE0
E07FC0
ENDCHAR
STARTCHAR afii10061
ENCODING 141
SWIDTH 666 0
DWIDTH 16 0
BBX 14 21 2 0
BITMAP
01C0
0300
0600
0000
E070
E0E0
E0C0
E180
E300
E700
EE00
EC00
FC00
FE00
EF00
E780
E3C0
E1E0
E0E0
E0F0
E07C
ENDCHAR
STARTCHAR afii10060
ENCODING 142
SWIDTH 916 0
DWIDTH 22 0
BBX 19 17 0 0
BITMAP
FFFE00
FFFE00
038000
038000
038000
038000
03BF00
03FFC0
03C1C0
0381E0
0380E0
0380E0
0380E0
0380E0
0380E0
0380E0
0380E0
ENDCHAR
STARTCHAR afii10145
ENCODING 143
SWIDTH 750 0
DWIDTH 18 0
BBX 13 21 2 -4
BITMAP
E038
E038
E038
E038
E038
E038
E038
E038
E038
E038
E038
E038
E038
E038
E038
FFF8
FFF8
0700
0700
0700
0700
ENDCHAR
STARTCHAR afii10099
ENCODING 144
SWIDTH 625 0
DWIDTH 15 0
BBX 12 22 1 -5
BITMAP
3800
FF80
FF80
3800
39C0
3BE0
3C70
3C70
3870
3870
3870
3870
3870
3870
3870
3870
3870
0070
0060
00E0
03C0
0380
ENDCHAR
STARTCHAR quoteleft
ENCODING 145
SWIDTH 229 0
DWIDTH 5 0
BBX 3 6 1 11
BITMAP
60
C0
C0
E0
E0
E0
ENDCHAR
STARTCHAR quoteright
ENCODING 146
SWIDTH 229 0
DWIDTH 5 0
BBX 3 6 1 11
BITMAP
E0
E0
E0
60
60
C0
ENDCHAR
STARTCHAR quotedblleft
ENCODING 147
SWIDTH 373 0
DWIDTH 9 0
BBX 7 5 1 12
BITMAP
66
CC
EE
EE
EE
ENDCHAR
STARTCHAR quotedblright
ENCODING 148
SWIDTH 373 0
DWIDTH 9 0
BBX 7 5 1 12
BITMAP
EE
EE
EE
66
CC
ENDCHAR
STARTCHAR bullet
ENCODING 149
SWIDTH 633 0
DWIDTH 15 0
BBX 7 7 4 4
BITMAP
FE
FE
FE
FE
FE
FE
FE
ENDCHAR
STARTCHAR endash
ENCODING 150
SWIDTH 500 0
DWIDTH 12 0
BBX 10 2 1 7
BITMAP
FFC0
FFC0
ENDCHAR
STARTCHAR emdash
ENCODING 151
SWIDTH 1000 0
DWIDTH 24 0
BBX 22 2 1 6
BITMAP
FFFFFC
FFFFFC
ENDCHAR
STARTCHAR trademark
ENCODING 153
SWIDTH 807 0
DWIDTH 19 0
BBX 18 9 0 8
BITMAP
FF71C0
FF71C0
187BC0
187BC0
186FC0
186EC0
186EC0
1866C0
1860C0
ENDCHAR
STARTCHAR afii10106
ENCODING 154
SWIDTH 875 0
DWIDTH 21 0
BBX 19 13 1 0
BITMAP
1FF000
1FF000
1C7000
1C7000
1C7000
1C7F00
1C7FC0
1C71E0
1C70E0
1C70E0
3871E0
F87FC0
F07F80
ENDCHAR
STARTCHAR guilsinglright
ENCODING 155
SWIDTH 331 0
DWIDTH 8 0
BBX 6 11 1 1
BITMAP
40
E0
70
30
18
1C
18
30
70
E0
C0
ENDCHAR
STARTCHAR afii10107
ENCODING 156
SWIDTH 875 0
DWIDTH 21 0
BBX 17 13 3 0
BITMAP
E1C000
E1C000
E1C000
E1C000
E1C000
FFFC00
FFFF00
E1C780
E1C380
E1C380
E1C780
E1FF00
E1FE00
ENDCHAR
STARTCHAR afii10109
ENCODING 157
SWIDTH 583 0
DWIDTH 14 0
BBX 12 17 2 0
BITMAP
0380
0600
0C00
0000
E0E0
E1C0
E380
E700
E600
EC00
FE00
EF00
EF80
E780
E3C0
E1E0
E0F0
ENDCHAR
STARTCHAR afii10108
ENCODING 158
SWIDTH 625 0
DWIDTH 15 0
BBX 12 17 1 0
BITMAP
3800
FF80
FF80
3800
39C0
3BE0
3C70
3C70
3870
3870
3870
3870
3870
3870
3870
3870
3870
ENDCHAR
STARTCHAR afii10193
ENCODING 159
SWIDTH 625 0
DWIDTH 15 0
BBX 10 16 3 -3
BITMAP
E1C0
E1C0
E1C0
E1C0
E1C0
E1C0
E1C0
E1C0
E1C0
E1C0
E1C0
FFC0
FFC0
0E00
0E00
0E00
ENDCHAR
STARTCHAR space
ENCODING 160
SWIDTH 316 0
DWIDTH 8 0
BBX 0 0 0 0
BITMAP
ENDCHAR
STARTCHAR afii10062
ENCODING 161
SWIDTH 666 0
DWIDTH 16 0
BBX 15 21 1 0
BITMAP
1830
0FE0
07C0
0100
E006
E00C
700C
7018
3818
3830
1C30
1C60
0E60
0EC0
07C0
0780
0380
0300
0700
3E00
3C00
ENDCHAR
STARTCHAR afii10110
ENCODING 162
SWIDTH 541 0
DWIDTH 13 0
BBX 12 22 0 -5
BITMAP
30C0
1F80
0600
0000
E030
E060
7060
7060
70C0
38C0
39C0
3D80
1D80
1F00
1F00
0F00
0E00
0600
0E00
0C00
1C00
1800
ENDCHAR
STARTCHAR afii10057
ENCODING 163
SWIDTH 311 0
DWIDTH 7 0
BBX 8 21 -1 -4
BITMAP
07
07
07
07
07
07
07
07
07
07
07
07
07
07
07
07
07
07
0E
FE
F8
ENDCHAR
STARTCHAR currency
ENCODING 164
SWIDTH 633 0
DWIDTH 15 0
BBX 14 15 1 1
BITMAP
C00C
E01C
77B8
3FF0
1860
3030
3030
3030
3030
3030
1860
3FF0
77B8
E01C
C00C
ENDCHAR
STARTCHAR afii10050
ENCODING 165
SWIDTH 500 0
DWIDTH 12 0
BBX 10 21 2 0
BITMAP
01C0
01C0
01C0
01C0
FFC0
FFC0
E000
E000
E000
E000
E000
E000
E000
E000
E000
E000
E000
E000
E000
E000
E000
ENDCHAR
STARTCHAR brokenbar
ENCODING 166
SWIDTH 265 0
DWIDTH 6 0
BBX 2 21 2 -4
BITMAP
C0
C0
C0
C0
C0
C0
C0
C0
00
00
00
00
00
C0
C0
C0
C0
C0
C0
C0
C0
ENDCHAR
STARTCHAR section
ENCODING 167
SWIDTH 633 0
DWIDTH 15 0
BBX 10 22 3 -5
BITMAP
1F80
7F80
E080
C000
C000
E000
7C00
7F00
5F80
C7C0
C1C0
E0C0
F8C0
7F80
3F00
0F80
01C0
00C0
00C0
C1C0
FF80
7F00
ENDCHAR
STARTCHAR afii10023
ENCODING 168
SWIDTH 542 0
DWIDTH 13 0
BBX 11 20 2 0
BITMAP
6300
6300
0000
FFC0
FFC0
E000
E000
E000
E000
E000
FF80
FF80
E000
E000
E000
E000
E000
E000
FFE0
FFE0
ENDCHAR
STARTCHAR copyright
ENCODING 169
SWIDTH 855 0
DWIDTH 21 0
BBX 19 17 1 0
BITMAP
03F800
0FFE00
1E0F00
380380
71E1C0
63F0C0
C71060
C60060
C60060
C60060
C71060
63F0C0
71F1C0
380380
1E0F00
0FFE00
03F800
ENDCHAR
STARTCHAR afii10053
ENCODING 170
SWIDTH 708 0
DWIDTH 17 0
BBX 14 17 1 0
BITMAP
07F8
1FFC
3C0C
7800
7000
F000
E000
FFC0
FFC0
E000
E000
E000
7000
7804
3C1C
1FFC
07F0
ENDCHAR
STARTCHAR guillemotleft
ENCODING 171
SWIDTH 524 0
DWIDTH 13 0
BBX 10 11 1 1
BITMAP
08C0
1DC0
3980
7300
6700
EE00
6700
7300
3980
19C0
0CC0
ENDCHAR
STARTCHAR logicalnot
ENCODING 172
SWIDTH 633 0
DWIDTH 15 0
BBX 14 7 1 4
BITMAP
FFFC
FFFC
000C
000C
000C
000C
000C
ENDCHAR
STARTCHAR hyphen
ENCODING 173
SWIDTH 325 0
DWIDTH 8 0
BBX 5 2 1 7
BITMAP
F8
F8
ENDCHAR
STARTCHAR registered
ENCODING 174
SWIDTH 633 0
DWIDTH 15 0
BBX 11 10 2 7
BITMAP
1F00
7FC0
71C0
FFE0
DF60
DE60
FBE0
71C0
7FC0
1F00
ENDCHAR
STARTCHAR afii10056
ENCODING 175
SWIDTH 291 0
DWIDTH 7 0
BBX 7 20 0 0
BITMAP
C6
C6
00
38
38
38
38
38
38
38
38
38
38
38
38
38
38
38
38
38
ENDCHAR
STARTCHAR degree
ENCODING 176
SWIDTH 277 0
DWIDTH 7 0
BBX 4 4 1 13
BITMAP
60
90
90
60
ENDCHAR
STARTCHAR plusminus
ENCODING 177
SWIDTH 633 0
DWIDTH 15 0
BBX 14 14 1 0
BITMAP
0300
0300
0300
0300
FFFC
FFFC
0300
0300
0300
0300
0000
0000
FFFC
FFFC
ENDCHAR
STARTCHAR afii10055
ENCODING 178
SWIDTH 288 0
DWIDTH 7 0
BBX 3 17 2 0
BITMAP
E0
E0
E0
E0
E0
E0
E0
E0
E0
E0
E0
E0
E0
E0
E0
E0
E0
ENDCHAR
STARTCHAR afii10103
ENCODING 179
SWIDTH 289 0
DWIDTH 7 0
BBX 3 17 2 0
BITMAP
E0
E0
E0
00
E0
E0
E0
E0
E0
E0
E0
E0
E0
E0
E0
E0
E0
ENDCHAR
STARTCHAR afii10098
ENCODING 180
SWIDTH 458 0
DWIDTH 11 0
BBX 9 16 2 0
BITMAP
0380
0380
0380
FF80
FF80
E000
E000
E000
E000
E000
E000
E000
E000
E000
E000
E000
ENDCHAR
STARTCHAR mu
ENCODING 181
SWIDTH 627 0
DWIDTH 15 0
BBX 10 17 3 -4
BITMAP
E1C0
E1C0
E1C0
E1C0
E1C0
E1C0
E1C0
E1C0
E1C0
E3C0
E3C0
FDC0
FDC0
E000
E000
E000
E000
ENDCHAR
STARTCHAR paragraph
ENCODING 182
SWIDTH 633 0
DWIDTH 15 0
BBX 10 21 2 -4
BITMAP
3FC0
7FC0
FEC0
FEC0
FEC0
FEC0
7EC0
3EC0
0EC0
06C0
06C0
06C0
06C0
06C0
06C0
06C0
06C0
06C0
06C0
06C0
06C0
ENDCHAR
STARTCHAR periodcentered
ENCODING 183
SWIDTH 316 0
DWIDTH 15 0
BBX 3 3 6 6
BITMAP
E0
E0
E0
ENDCHAR
STARTCHAR afii10071
ENCODING 184
SWIDTH 557 0
DWIDTH 13 0
BBX 11 16 1 0
BITMAP
3180
3180
0000
1F00
3F80
71C0
60E0
E0E0
FFE0
FFE0
E000
E000
7000
7820
3FE0
0FC0
ENDCHAR
STARTCHAR afii61352
ENCODING 185
SWIDTH 1000 0
DWIDTH 24 0
BBX 21 17 2 0
BITMAP
E01800
F01800
F01800
F81800
FC18F0
DC18F0
DE1998
CF1998
C71998
C79998
C3D8F0
C1D8F0
C1F800
C0F9F8
C079F8
C07800
C03800
ENDCHAR
STARTCHAR afii10101
ENCODING 186
SWIDTH 500 0
DWIDTH 12 0
BBX 10 13 1 0
BITMAP
0FC0
3FC0
7840
7000
E000
FE00
FE00
E000
E000
7000
7840
3FC0
0F80
ENDCHAR
STARTCHAR guillemotright
ENCODING 187
SWIDTH 524 0
DWIDTH 13 0
BBX 10 11 1 1
BITMAP
CC00
E600
6700
3380
3980
1DC0
3980
3380
6700
EE00
C400
ENDCHAR
STARTCHAR afii10105
ENCODING 188
SWIDTH 304 0
DWIDTH 7 0
BBX 7 22 -1 -5
BITMAP
0E
0E
0E
00
0E
0E
0E
0E
0E
0E
0E
0E
0E
0E
0E
0E
0E
0E
0E
8E
FC
F8
ENDCHAR
STARTCHAR afii10054
ENCODING 189
SWIDTH 539 0
DWIDTH 13 0
BBX 10 17 1 0
BITMAP
3F00
7F80
F080
E000
E000
F000
7800
7E00
3F00
0F80
03C0
01C0
01C0
01C0
8380
FF80
7E00
ENDCHAR
STARTCHAR afii10102
ENCODING 190
SWIDTH 510 0
DWIDTH 12 0
BBX 9 13 2 0
BITMAP
3F00
7F00
E100
E000
F000
FE00
7F00
1F80
0380
0380
8780
FF00
7E00
ENDCHAR
STARTCHAR afii10104
ENCODING 191
SWIDTH 291 0
DWIDTH 7 0
BBX 7 17 0 0
BITMAP
C6
C6
C6
00
38
38
38
38
38
38
38
38
38
38
38
38
38
ENDCHAR
STARTCHAR afii10017
ENCODING 192
SWIDTH 708 0
DWIDTH 17 0
BBX 16 17 0 0
BITMAP
01C0
03C0
03E0
07E0
06E0
06F0
0C70
0C78
1C38
1838
1FFC
3FFC
301E
700E
600E
600F
C007
ENDCHAR
STARTCHAR afii10018
ENCODING 193
SWIDTH 583 0
DWIDTH 14 0
BBX 11 17 2 0
BITMAP
FFC0
FFC0
E000
E000
E000
E000
E000
FE00
FF80
E3C0
E1E0
E0E0
E0E0
E0E0
E1E0
FFC0
FF80
ENDCHAR
STARTCHAR afii10019
ENCODING 194
SWIDTH 583 0
DWIDTH 14 0
BBX 11 17 2 0
BITMAP
FF00
FF80
E3C0
E1C0
E1C0
E1C0
E380
FF00
FE00
E380
E1C0
E0E0
E0E0
E0E0
E1E0
FFC0
FF00
ENDCHAR
STARTCHAR afii10020
ENCODING 195
SWIDTH 500 0
DWIDTH 12 0
BBX 10 17 2 0
BITMAP
FFC0
FFC0
E000
E000
E000
E000
E000
E000
E000
E000
E000
E000
E000
E000
E000
E000
E000
ENDCHAR
STARTCHAR afii10021
ENCODING 196
SWIDTH 750 0
DWIDTH 18 0
BBX 17 21 0 -4
BITMAP
0FFE00
0FFE00
0E0E00
0E0E00
0E0E00
0E0E00
0E0E00
0E0E00
0E0E00
1C0E00
1C0E00
1C0E00
1C0E00
380E00
380E00
FFFF80
FFFF80
E00380
E00380
E00380
E00380
ENDCHAR
STARTCHAR afii10022
ENCODING 197
SWIDTH 541 0
DWIDTH 13 0
BBX 11 17 2 0
BITMAP
FFC0
FFC0
E000
E000
E000
E000
E000
FF80
FF80
E000
E000
E000
E000
E000
E000
FFE0
FFE0
ENDCHAR
STARTCHAR afii10024
ENCODING 198
SWIDTH 958 0
DWIDTH 23 0
BBX 23 17 0 0
BITMAP
383838
1C3870
0C3860
0638C0
033980
03BB80
01FF00
00FE00
00FE00
01FF00
03BB80
07BBC0
0F39E0
1E38F0
1C3870
3C3878
F8383E
ENDCHAR
STARTCHAR afii10025
ENCODING 199
SWIDTH 583 0
DWIDTH 14 0
BBX 11 17 2 0
BITMAP
7F00
FF80
C3C0
01C0
01C0
01C0
0380
1F00
1E00
0380
01C0
00E0
00E0
80E0
E1E0
FFC0
3F00
ENDCHAR
STARTCHAR afii10026
ENCODING 200
SWIDTH 750 0
DWIDTH 18 0
BBX 13 17 2 0
BITMAP
C038
C078
C078
C0F8
C1F8
C1D8
C3D8
C798
C718
CF18
DE18
DC18
FC18
F818
F018
F018
E018
ENDCHAR
STARTCHAR afii10027
ENCODING 201
SWIDTH 750 0
DWIDTH 18 0
BBX 13 21 2 0
BITMAP
3060
1FC0
0F80
0200
C038
C078
C078
C0F8
C1F8
C1D8
C3D8
C798
C718
CF18
DE18
DC18
FC18
F818
F018
F018
E018
ENDCHAR
STARTCHAR afii10028
ENCODING 202
SWIDTH 666 0
DWIDTH 16 0
BBX 14 17 2 0
BITMAP
E070
E0E0
E0C0
E180
E300
E700
EE00
EC00
FC00
FE00
EF00
E780
E3C0
E1E0
E0E0
E0F0
E07C
ENDCHAR
STARTCHAR afii10029
ENCODING 203
SWIDTH 750 0
DWIDTH 18 0
BBX 14 17 1 0
BITMAP
1FFC
1FFC
1C1C
1C1C
1C1C
1C1C
1C1C
1C1C
1C1C
1C1C
1C1C
1C1C
1C1C
1C1C
381C
F81C
E01C
ENDCHAR
STARTCHAR afii10030
ENCODING 204
SWIDTH 875 0
DWIDTH 21 0
BBX 16 17 2 0
BITMAP
F00F
F00F
F80F
F81F
F81F
DC3F
DC37
DC37
CE77
CE67
CE67
C7C7
C7C7
C7C7
C387
C387
C007
ENDCHAR
STARTCHAR afii10031
ENCODING 205
SWIDTH 750 0
DWIDTH 18 0
BBX 13 17 2 0
BITMAP
E038
E038
E038
E038
E038
E038
E038
FFF8
FFF8
E038
E038
E038
E038
E038
E038
E038
E038
ENDCHAR
STARTCHAR afii10032
ENCODING 206
SWIDTH 791 0
DWIDTH 19 0
BBX 16 17 1 0
BITMAP
07E0
1FF8
3C3C
781E
700E
E007
E007
E007
E007
E007
E007
E007
700E
781E
3C3C
1FF8
07E0
ENDCHAR
STARTCHAR afii10033
ENCODING 207
SWIDTH 750 0
DWIDTH 18 0
BBX 13 17 2 0
BITMAP
FFF8
FFF8
E038
E038
E038
E038
E038
E038
E038
E038
E038
E038
E038
E038
E038
E038
E038
ENDCHAR
STARTCHAR afii10034
ENCODING 208
SWIDTH 541 0
DWIDTH 13 0
BBX 11 17 2 0
BITMAP
FF80
FFC0
E1E0
E0E0
E0E0
E0E0
E1E0
E3C0
FF80
FF00
E000
E000
E000
E000
E000
E000
E000
ENDCHAR
STARTCHAR afii10035
ENCODING 209
SWIDTH 708 0
DWIDTH 17 0
BBX 14 17 1 0
BITMAP
07F8
1FFC
3C0C
7800
7000
F000
E000
E000
E000
E000
E000
E000
7000
7804
3C1C
1FFC
07F0
ENDCHAR
STARTCHAR afii10036
ENCODING 210
SWIDTH 625 0
DWIDTH 15 0
BBX 15 17 0 0
BITMAP
FFFE
FFFE
0380
0380
0380
0380
0380
0380
0380
0380
0380
0380
0380
0380
0380
0380
0380
ENDCHAR
STARTCHAR afii10037
ENCODING 211
SWIDTH 666 0
DWIDTH 16 0
BBX 15 17 1 0
BITMAP
E006
E00C
700C
7018
3818
3830
1C30
1C60
0E60
0EC0
07C0
0780
0380
0300
0700
3E00
3C00
ENDCHAR
STARTCHAR afii10038
ENCODING 212
SWIDTH 833 0
DWIDTH 20 0
BBX 17 17 1 0
BITMAP
01C000
01C000
0FF800
3FFE00
79CF00
71C700
E1C380
E1C380
E1C380
E1C380
E1C380
71C700
79CF00
3FFE00
0FF800
01C000
01C000
ENDCHAR
STARTCHAR afii10039
ENCODING 213
SWIDTH 625 0
DWIDTH 15 0
BBX 14 17 0 0
BITMAP
F01C
7038
3830
3C70
1CE0
1EC0
0FC0
0780
0780
07C0
0FC0
0DE0
18F0
3870
3078
6038
E03C
ENDCHAR
STARTCHAR afii10040
ENCODING 214
SWIDTH 750 0
DWIDTH 18 0
BBX 15 21 2 -4
BITMAP
E038
E038
E038
E038
E038
E038
E038
E038
E038
E038
E038
E038
E038
E038
E038
FFFE
FFFE
000E
000E
000E
000E
ENDCHAR
STARTCHAR afii10041
ENCODING 215
SWIDTH 750 0
DWIDTH 18 0
BBX 13 17 2 0
BITMAP
E038
E038
E038
E038
E038
E038
E038
F038
7078
7FF8
1FB8
0038
0038
0038
0038
0038
0038
ENDCHAR
STARTCHAR afii10042
ENCODING 216
SWIDTH 1000 0
DWIDTH 24 0
BBX 19 17 2 0
BITMAP
E0E0E0
E0E0E0
E0E0E0
E0E0E0
E0E0E0
E0E0E0
E0E0E0
E0E0E0
E0E0E0
E0E0E0
E0E0E0
E0E0E0
E0E0E0
E0E0E0
E0E0E0
FFFFE0
FFFFE0
ENDCHAR
STARTCHAR afii10043
ENCODING 217
SWIDTH 1000 0
DWIDTH 24 0
BBX 21 21 2 -4
BITMAP
E0E0E0
E0E0E0
E0E0E0
E0E0E0
E0E0E0
E0E0E0
E0E0E0
E0E0E0
E0E0E0
E0E0E0
E0E0E0
E0E0E0
E0E0E0
E0E0E0
E0E0E0
FFFFF8
FFFFF8
000038
000038
000038
000038
ENDCHAR
STARTCHAR afii10044
ENCODING 218
SWIDTH 625 0
DWIDTH 15 0
BBX 14 17 0 0
BITMAP
FC00
FC00
1C00
1C00
1C00
1C00
1C00
1FC0
1FF0
1C78
1C3C
1C1C
1C1C
1C1C
1C3C
1FF8
1FF0
ENDCHAR
STARTCHAR afii10045
ENCODING 219
SWIDTH 916 0
DWIDTH 22 0
BBX 17 17 2 0
BITMAP
E00380
E00380
E00380
E00380
E00380
E00380
E00380
FE0380
FF8380
E3C380
E1E380
E0E380
E0E380
E0E380
E1E380
FFC380
FF8380
ENDCHAR
STARTCHAR afii10046
ENCODING 220
SWIDTH 583 0
DWIDTH 14 0
BBX 11 17 2 0
BITMAP
E000
E000
E000
E000
E000
E000
E000
FE00
FF80
E3C0
E1E0
E0E0
E0E0
E0E0
E1E0
FFC0
FF80
ENDCHAR
STARTCHAR afii10047
ENCODING 221
SWIDTH 708 0
DWIDTH 17 0
BBX 14 17 1 0
BITMAP
7F80
FFE0
C0F0
0078
0038
001C
001C
0FFC
0FFC
001C
001C
001C
0038
8078
E0F0
FFE0
3F80
ENDCHAR
STARTCHAR afii10048
ENCODING 222
SWIDTH 1000 0
DWIDTH 24 0
BBX 21 17 2 0
BITMAP
E01F00
E07FC0
E0F1E0
E1C070
E1C070
E38038
E38038
FF8038
FF8038
E38038
E38038
E38038
E1C070
E1C070
E0F1E0
E07FC0
E01F00
ENDCHAR
STARTCHAR afii10049
ENCODING 223
SWIDTH 666 0
DWIDTH 16 0
BBX 13 17 0 0
BITMAP
07F8
0FF8
1E38
1C38
1C38
1C38
0E38
0F38
03F8
03F8
0738
0F38
0E38
1E38
3C38
7838
F838
ENDCHAR
STARTCHAR afii10065
ENCODING 224
SWIDTH 541 0
DWIDTH 13 0
BBX 12 13 1 0
BITMAP
1F80
7FC0
41C0
01C0
01C0
1FC0
7FC0
F1C0
E1C0
E1C0
E3C0
7EF0
3C70
ENDCHAR
STARTCHAR afii10066
ENCODING 225
SWIDTH 625 0
DWIDTH 15 0
BBX 12 18 1 0
BITMAP
0020
0FE0
3FC0
7800
6000
E780
EFC0
F9E0
E0E0
E070
E070
E070
E070
E070
70E0
79E0
3FC0
1F80
ENDCHAR
STARTCHAR afii10067
ENCODING 226
SWIDTH 583 0
DWIDTH 14 0
BBX 10 13 3 0
BITMAP
FE00
FF80
E380
E380
E700
FE00
FF80
E3C0
E1C0
E1C0
E3C0
FF80
FF00
ENDCHAR
STARTCHAR afii10068
ENCODING 227
SWIDTH 458 0
DWIDTH 11 0
BBX 9 13 2 0
BITMAP
FF80
FF80
E000
E000
E000
E000
E000
E000
E000
E000
E000
E000
E000
ENDCHAR
STARTCHAR afii10069
ENCODING 228
SWIDTH 666 0
DWIDTH 16 0
BBX 15 16 1 -3
BITMAP
0FF8
0FF8
0E38
0E38
0E38
0E38
0E38
1C38
1C38
1C38
3838
FFFE
FFFE
E00E
E00E
E00E
ENDCHAR
STARTCHAR afii10070
ENCODING 229
SWIDTH 541 0
DWIDTH 13 0
BBX 11 13 1 0
BITMAP
1F00
3F80
71C0
60E0
E0E0
FFE0
FFE0
E000
E000
7000
7820
3FE0
0FC0
ENDCHAR
STARTCHAR afii10072
ENCODING 230
SWIDTH 875 0
DWIDTH 21 0
BBX 21 13 0 0
BITMAP
707070
3870E0
1C71C0
0E7380
067300
037600
07FF00
0F7780
1F77C0
1E73C0
3C71E0
7870F0
F07078
ENDCHAR
STARTCHAR afii10073
ENCODING 231
SWIDTH 541 0
DWIDTH 13 0
BBX 10 13 2 0
BITMAP
FE00
FF80
8380
0380
0700
3E00
3F80
03C0
01C0
01C0
83C0
FF80
7F00
ENDCHAR
STARTCHAR afii10074
ENCODING 232
SWIDTH 625 0
DWIDTH 15 0
BBX 10 13 3 0
BITMAP
C1C0
C3C0
C3C0
C7C0
C7C0
CFC0
DEC0
DCC0
FCC0
F8C0
F0C0
F0C0
E0C0
ENDCHAR
STARTCHAR afii10075
ENCODING 233
SWIDTH 625 0
DWIDTH 15 0
BBX 10 17 3 0
BITMAP
6180
3F00
0C00
0000
C1C0
C3C0
C3C0
C7C0
C7C0
CFC0
DEC0
DCC0
FCC0
F8C0
F0C0
F0C0
E0C0
ENDCHAR
STARTCHAR afii10076
ENCODING 234
SWIDTH 583 0
DWIDTH 14 0
BBX 12 13 2 0
BITMAP
E0E0
E1C0
E380
E700
E600
EC00
FE00
EF00
EF80
E780
E3C0
E1E0
E0F0
ENDCHAR
STARTCHAR afii10077
ENCODING 235
SWIDTH 625 0
DWIDTH 15 0
BBX 12 13 1 0
BITMAP
1FF0
1FF0
1C70
1C70
1C70
1C70
1C70
1C70
1C70
1C70
3870
F870
F070
ENDCHAR
STARTCHAR afii10078
ENCODING 236
SWIDTH 708 0
DWIDTH 17 0
BBX 12 13 3 0
BITMAP
E070
F0F0
F0F0
F0F0
F9F0
F9F0
F9F0
DF70
DF70
DF70
CE70
CE70
C070
ENDCHAR
STARTCHAR afii10079
ENCODING 237
SWIDTH 625 0
DWIDTH 15 0
BBX 10 13 3 0
BITMAP
E1C0
E1C0
E1C0
E1C0
E1C0
FFC0
FFC0
E1C0
E1C0
E1C0
E1C0
E1C0
E1C0
ENDCHAR
STARTCHAR afii10080
ENCODING 238
SWIDTH 625 0
DWIDTH 15 0
BBX 12 13 1 0
BITMAP
1F80
3FC0
79E0
70E0
E070
E070
E070
E070
E070
70E0
79E0
3FC0
1F80
ENDCHAR
STARTCHAR afii10081
ENCODING 239
SWIDTH 625 0
DWIDTH 15 0
BBX 10 13 3 0
BITMAP
FFC0
FFC0
E1C0
E1C0
E1C0
E1C0
E1C0
E1C0
E1C0
E1C0
E1C0
E1C0
E1C0
ENDCHAR
STARTCHAR afii10082
ENCODING 240
SWIDTH 625 0
DWIDTH 15 0
BBX 12 18 2 -5
BITMAP
E780
EFE0
F8E0
E0F0
E070
E070
E070
E070
E070
E0E0
F1E0
FFC0
E780
E000
E000
E000
E000
E000
ENDCHAR
STARTCHAR afii10083
ENCODING 241
SWIDTH 500 0
DWIDTH 12 0
BBX 10 13 1 0
BITMAP
0FC0
3FC0
7840
7000
E000
E000
E000
E000
E000
7000
7840
3FC0
0F80
ENDCHAR
STARTCHAR afii10084
ENCODING 242
SWIDTH 458 0
DWIDTH 11 0
BBX 11 13 0 0
BITMAP
FFE0
FFE0
0E00
0E00
0E00
0E00
0E00
0E00
0E00
0E00
0E00
0E00
0E00
ENDCHAR
STARTCHAR afii10085
ENCODING 243
SWIDTH 541 0
DWIDTH 13 0
BBX 12 18 0 -5
BITMAP
E030
E060
7060
7060
70C0
38C0
39C0
3D80
1D80
1F00
1F00
0F00
0E00
0600
0E00
0C00
1C00
1800
ENDCHAR
STARTCHAR afii10086
ENCODING 244
SWIDTH 875 0
DWIDTH 21 0
BBX 19 22 1 -5
BITMAP
00E000
00E000
00E000
00E000
1EEF00
3FFF80
79F3C0
70E1C0
E0E0E0
E0E0E0
E0E0E0
E0E0E0
E0E0E0
70E1C0
79F3C0
3FFF80
1EEF00
00E000
00E000
00E000
00E000
00E000
ENDCHAR
STARTCHAR afii10087
ENCODING 245
SWIDTH 625 0
DWIDTH 15 0
BBX 13 13 1 0
BITMAP
E038
7070
38E0
1CC0
0DC0
0780
0700
0F80
1D80
18C0
30E0
7070
E038
ENDCHAR
STARTCHAR afii10088
ENCODING 246
SWIDTH 625 0
DWIDTH 15 0
BBX 12 16 3 -3
BITMAP
E1C0
E1C0
E1C0
E1C0
E1C0
E1C0
E1C0
E1C0
E1C0
E1C0
E1C0
FFF0
FFF0
0070
0070
0070
ENDCHAR
STARTCHAR afii10089
ENCODING 247
SWIDTH 625 0
DWIDTH 15 0
BBX 10 13 2 0
BITMAP
E1C0
E1C0
E1C0
E1C0
E1C0
E1C0
E3C0
7FC0
39C0
01C0
01C0
01C0
01C0
ENDCHAR
STARTCHAR afii10090
ENCODING 248
SWIDTH 916 0
DWIDTH 22 0
BBX 17 13 3 0
BITMAP
E1C380
E1C380
E1C380
E1C380
E1C380
E1C380
E1C380
E1C380
E1C380
E1C380
E1C380
FFFF80
FFFF80
ENDCHAR
STARTCHAR afii10091
ENCODING 249
SWIDTH 916 0
DWIDTH 22 0
BBX 19 16 3 -3
BITMAP
E1C380
E1C380
E1C380
E1C380
E1C380
E1C380
E1C380
E1C380
E1C380
E1C380
E1C380
FFFFE0
FFFFE0
0000E0
0000E0
0000E0
ENDCHAR
STARTCHAR afii10092
ENCODING 250
SWIDTH 583 0
DWIDTH 14 0
BBX 13 13 0 0
BITMAP
FC00
FC00
1C00
1C00
1C00
1FC0
1FF0
1C78
1C38
1C38
1C78
1FF0
1FE0
ENDCHAR
STARTCHAR afii10093
ENCODING 251
SWIDTH 875 0
DWIDTH 21 0
BBX 16 13 3 0
BITMAP
E007
E007
E007
E007
E007
FE07
FF87
E3C7
E1C7
E1C7
E3C7
FF87
FF07
ENDCHAR
STARTCHAR afii10094
ENCODING 252
SWIDTH 583 0
DWIDTH 14 0
BBX 10 13 3 0
BITMAP
E000
E000
E000
E000
E000
FE00
FF80
E3C0
E1C0
E1C0
E3C0
FF80
FF00
ENDCHAR
STARTCHAR afii10095
ENCODING 253
SWIDTH 541 0
DWIDTH 13 0
BBX 10 13 1 0
BITMAP
FC00
FF00
8780
0380
01C0
1FC0
1FC0
01C0
01C0
0380
8780
FF00
7C00
ENDCHAR
STARTCHAR afii10096
ENCODING 254
SWIDTH 958 0
DWIDTH 23 0
BBX 18 13 3 0
BITMAP
E07E00
E0FF00
E1E780
E1C380
E381C0
FF81C0
FF81C0
E381C0
E381C0
E1C380
E1E780
E0FF00
E07E00
ENDCHAR
STARTCHAR afii10097
ENCODING 255
SWIDTH 583 0
DWIDTH 14 0
BBX 12 13 0 0
BITMAP
0FF0
1FF0
3C70
3870
3870
1C70
0FF0
07F0
0E70
1C70
3870
7870
F070
ENDCHAR
STARTCHAR fl
ENCODING -1
SWIDTH 645 0
DWIDTH 16 0
BBX 12 19 1 0
BITMAP
0FF0
1FF0
3870
3870
3870
3870
FC70
FC70
3870
3870
3870
3870
3870
3870
3870
3870
3870
3870
3870
ENDCHAR
STARTCHAR Zcaron
ENCODING -1
SWIDTH 605 0
DWIDTH 14 0
BBX 12 21 1 0
BITMAP
39C0
1F80
0F00
0000
7FF0
7FF0
00F0
00E0
01E0
03C0
0380
0700
0F00
1E00
1C00
3C00
7800
7000
F000
FFF0
FFF0
ENDCHAR
STARTCHAR oe
ENCODING -1
SWIDTH 930 0
DWIDTH 22 0
BBX 20 13 1 0
BITMAP
0F8F80
3FDFE0
78F8E0
70F070
E07070
E07FF0
E07FF0
E07000
E07000
70F800
78FC10
3FDFF0
1F87E0
ENDCHAR
STARTCHAR Ydieresis
ENCODING -1
SWIDTH 623 0
DWIDTH 15 0
BBX 15 20 0 0
BITMAP
0C60
0C60
0000
E00E
700C
7818
3838
3C30
1E70
0E60
0FC0
07C0
0780
0380
0380
0380
0380
0380
0380
0380
ENDCHAR
STARTCHAR dotlessi
ENCODING -1
SWIDTH 289 0
DWIDTH 7 0
BBX 3 13 2 0
BITMAP
E0
E0
E0
E0
E0
E0
E0
E0
E0
E0
E0
E0
E0
ENDCHAR
STARTCHAR lslash
ENCODING -1
SWIDTH 289 0
DWIDTH 7 0
BBX 9 17 0 0
BITMAP
1C00
1C00
1C00
1C00
1C80
1F80
1F00
1C00
FC00
9C00
1C00
1C00
1C00
1C00
1C00
1C00
1C00
ENDCHAR
STARTCHAR Lslash
ENCODING -1
SWIDTH 533 0
DWIDTH 13 0
BBX 14 17 0 0
BITMAP
1C00
1C00
1C00
1C00
1C00
1C80
1F80
1F00
7C00
FC00
9C00
1C00
1C00
1C00
1C00
1FFC
1FFC
ENDCHAR
STARTCHAR fi
ENCODING -1
SWIDTH 645 0
DWIDTH 15 0
BBX 12 19 1 0
BITMAP
0F00
1F00
3870
3870
3870
3800
FFF0
FFF0
3870
3870
3870
3870
3870
3870
3870
3870
3870
3870
3870
ENDCHAR
STARTCHAR OE
ENCODING -1
SWIDTH 1000 0
DWIDTH 24 0
BBX 22 17 1 0
BITMAP
07DFF8
1FFFF8
3C3C00
701C00
701C00
E01C00
E01C00
E01FF0
E01FF0
E01C00
E01C00
E01C00
701C00
701C00
3C3C00
1FFFFC
07DFFC
ENDCHAR
STARTCHAR caron
ENCODING -1
SWIDTH 614 0
DWIDTH 15 0
BBX 8 3 3 14
BITMAP
E7
7E
3C
ENDCHAR
STARTCHAR ogonek
ENCODING -1
SWIDTH 614 0
DWIDTH 15 0
BBX 4 3 6 -4
BITMAP
60
C0
F0
ENDCHAR
STARTCHAR hungarumlaut
ENCODING -1
SWIDTH 614 0
DWIDTH 15 0
BBX 7 3 5 14
BITMAP
36
6C
D8
ENDCHAR
STARTCHAR dotaccent
ENCODING -1
SWIDTH 614 0
DWIDTH 15 0
BBX 2 3 6 14
BITMAP
C0
C0
C0
ENDCHAR
STARTCHAR breve
ENCODING -1
SWIDTH 614 0
DWIDTH 15 0
BBX 8 3 3 14
BITMAP
C3
7E
3C
ENDCHAR
STARTCHAR tilde
ENCODING -1
SWIDTH 614 0
DWIDTH 15 0
BBX 8 3 3 14
BITMAP
71
FF
CE
ENDCHAR
STARTCHAR circumflex
ENCODING -1
SWIDTH 614 0
DWIDTH 15 0
BBX 8 3 3 14
BITMAP
3C
7E
E7
ENDCHAR
STARTCHAR scaron
ENCODING -1
SWIDTH 510 0
DWIDTH 12 0
BBX 9 17 2 0
BITMAP
7380
3F00
1E00
0000
3F00
7F00
E100
E000
F000
FE00
7F00
1F80
0380
0380
8780
FF00
7E00
ENDCHAR
STARTCHAR ring
ENCODING -1
SWIDTH 614 0
DWIDTH 15 0
BBX 4 4 5 15
BITMAP
60
90
90
60
ENDCHAR
STARTCHAR florin
ENCODING -1
SWIDTH 633 0
DWIDTH 15 0
BBX 11 21 3 -4
BITMAP
03E0
07E0
0E00
0C00
1C00
1C00
1C00
1C00
FE00
FE00
1C00
1C00
3800
3800
3800
7800
7000
7000
7000
E000
E000
ENDCHAR
STARTCHAR fraction
ENCODING -1
SWIDTH 36 0
DWIDTH 1 0
BBX 15 17 -6 0
BITMAP
000E
001C
0018
0038
0070
00E0
00C0
01C0
0380
0700
0600
0E00
1C00
3800
3000
7000
E000
ENDCHAR
STARTCHAR Scaron
ENCODING -1
SWIDTH 539 0
DWIDTH 13 0
BBX 10 21 1 0
BITMAP
7380
3F00
1E00
0000
3F00
7F80
F080
E000
E000
F000
7800
7E00
3F00
0F80
03C0
01C0
01C0
01C0
8380
FF80
7E00
ENDCHAR
STARTCHAR zcaron
ENCODING -1
SWIDTH 573 0
DWIDTH 14 0
BBX 11 17 1 0
BITMAP
39C0
1F80
0F00
0000
FFE0
FFE0
00C0
0180
0300
0700
0E00
1C00
3800
3000
6000
FFE0
FFE0
ENDCHAR
ENDFONT
